# xmcd
# 
# Track frame offsets:
#     182
#     20007
#     41517
#     58235
#     82145
#     99512
#     118332
#     138075
#     154732
#     169232
# 
# Disc length: 2585
# 
# Revision: 0
# Processed by: cddbd v1.5.2PL0 Copyright (c) Steve Scherf et al.
# Submitted via: BonkEnc v1.0.8
# 
DISCID=880a170a
DTITLE=Sonny Terry - Whoopin' ( With Johnny Winter and Willie Dixon )
DYEAR=1984
DGENRE=Blues
TTITLE0=I Got My Eyes On You
TTITLE1=Sonny's Whoopin' The Doop
TTITLE2=Burnt Child
TTITLE3=Whoee, Whoee
TTITLE4=Crow Jane
TTITLE5=So Tough With Me
TTITLE6=Whoo Wee Baby
TTITLE7=I Think I Got The Blues
TTITLE8=Ya, Ya
TTITLE9=Roll Me Baby
EXTD=Johnny Winter\nWillie Dixon
EXTT0=
EXTT1=
EXTT2=
EXTT3=
EXTT4=
EXTT5=
EXTT6=
EXTT7=
EXTT8=
EXTT9=
PLAYORDER=
